<svg height="496pt" viewBox="0 0 496 496" width="496pt" xmlns="http://www.w3.org/2000/svg" xmlns:xlink="http://www.w3.org/1999/xlink"><linearGradient id="a" gradientUnits="userSpaceOnUse" x1="248" x2="248" y1="496" y2="0"><stop offset="0" stop-color="#9f2fff"/><stop offset="1" stop-color="#0bb1d3"/></linearGradient><path d="m296 168c0 4.414062-3.585938 8-8 8s-8-3.585938-8-8 3.585938-8 8-8 8 3.585938 8 8zm72-8c-4.414062 0-8 3.585938-8 8s3.585938 8 8 8 8-3.585938 8-8-3.585938-8-8-8zm-40 72c-8.824219 0-16-7.175781-16-16h-16c0 17.648438 14.351562 32 32 32s32-14.351562 32-32h-16c0 8.824219-7.175781 16-16 16zm168 138.59375v93.40625h-272.808594c-3.71875 18.230469-19.871094 32-39.191406 32h-144c-22.054688 0-40-17.945312-40-40v-224c0-21.480469 17.0625-38.9375 38.328125-39.832031-9.320313-14.199219-14.328125-30.824219-14.328125-48.167969 0-48.519531 39.480469-88 88-88s88 39.480469 88 88c0 17.328125-5 33.929688-14.304688 48.121094 3.914063.167968 7.738282.902344 11.402344 2.175781 1.628906-2.394531 3.414063-4.359375 4.992188-6.089844 3.6875-4.054687 5.910156-6.511719 5.910156-12.207031v-56c0-66.167969 53.832031-120 120-120s120 53.832031 120 120v56c0 5.695312 2.222656 8.152344 5.910156 12.199219 4.257813 4.679687 10.089844 11.082031 10.089844 22.96875s-5.832031 18.289062-10.089844 22.96875c-3.6875 4.054687-5.910156 6.511719-5.910156 12.207031 0 5.710938 2.222656 8.160156 5.921875 12.214844 4.246094 4.679687 10.078125 11.097656 10.078125 22.984375 0 11.898437-5.832031 18.304687-10.078125 22.984375-3.097656 3.410156-5.066406 5.792968-5.65625 9.792968l9.445313 3.152344c22.898437 7.632813 38.289062 28.984375 38.289062 53.121094zm-54.703125-172.496094c-6.007813 9.03125-15.609375 15.382813-26.730469 17.238282-4.300781 24.359374-18.613281 45.273437-38.574218 58.328124v16.574219l56.902343 18.96875c1.792969-7.253906 5.9375-11.855469 9.175781-15.429687 3.699219-4.066406 5.921876-6.511719 5.921876-12.226563 0-5.710937-2.222657-8.160156-5.921876-12.214843-4.238281-4.6875-10.070312-11.105469-10.070312-22.992188s5.832031-18.289062 10.089844-22.96875c3.6875-4.054688 5.910156-6.511719 5.910156-12.207031 0-5.695313-2.222656-8.152344-5.910156-12.199219-.257813-.28125-.53125-.585938-.792969-.871094zm-41.296875 1.902344v-40h-4.121094c-44.277344 0-86.007812-16.632812-118.039062-46.9375-13.054688 5.058594-21.839844 17.632812-21.839844 31.921875v55.015625c0 39.703125 32.296875 72 72 72s72-32.296875 72-72zm-104 81.886719v10.265625l32 25.609375 32-25.609375v-10.265625c-9.9375 3.898437-20.703125 6.113281-32 6.113281s-22.0625-2.214844-32-6.113281zm-22.449219 27.359375 11.121094 44.449218 30.679687-25.566406-28.953124-23.160156zm39.289063 138.753906h30.320312l-6.398437-64h-17.523438zm34.640625-93.351562-19.480469-16.234376-19.480469 16.234376 8.007813 13.351562h22.9375zm23.847656-.953126 11.121094-44.449218-12.847657-4.277344-28.953124 23.160156zm44.671875-155.167968c9.289062-3.3125 16-12.113282 16-22.527344s-6.710938-19.214844-16-22.527344zm-192-78.527344v24.207031c4.847656-3.671875 10.488281-6.3125 16.695312-7.464843 3.226563-19.496094 17.671876-35.574219 37.367188-40.496094l4.394531-1.101563 3.199219 3.199219c29.449219 29.449219 68.582031 45.65625 110.222656 45.65625h4.121094v-32h16v24.808594c5.945312 1.214844 11.328125 3.855468 16 7.390625v-24.199219c0-57.34375-46.65625-104-104-104s-104 46.65625-104 104zm16 78.527344v-45.046875c-9.289062 3.3125-16 12.113281-16 22.527343 0 10.417969 6.710938 19.207032 16 22.519532zm-32 12.640625c0 5.695312 2.222656 8.152343 5.910156 12.199219 4.257813 4.6875 10.089844 11.089843 10.089844 22.976562s-5.832031 18.304688-10.078125 22.984375c-3.699219 4.0625-5.921875 6.503906-5.921875 12.214844 0 5.714843 2.222656 8.167969 5.921875 12.226562 3.238281 3.574219 7.382813 8.175781 9.175781 15.429688l56.902344-18.96875v-16.574219c-19.96875-13.054688-34.28125-33.984375-38.574219-58.351562-11.167969-1.921876-20.722656-8.273438-26.707031-17.234376-.261719.296876-.542969.609376-.796875.890626-3.699219 4.0625-5.921875 6.519531-5.921875 12.207031zm-168-67.167969c0 17.886719 6.574219 34.777344 18.441406 48h45.558594v-9.472656c-9.289062-3.3125-16-12.113282-16-22.527344h16c0 4.414062 3.585938 8 8 8s8-3.585938 8-8-3.585938-8-8-8c-13.230469 0-24-10.769531-24-24 0-10.414062 6.710938-19.214844 16-22.527344v-17.472656h16v17.472656c9.289062 3.3125 16 12.113282 16 22.527344h-16c0-4.414062-3.585938-8-8-8s-8 3.585938-8 8 3.585938 8 8 8c13.230469 0 24 10.769531 24 24 0 10.414062-6.710938 19.214844-16 22.527344v9.472656h45.558594c11.867187-13.222656 18.441406-30.113281 18.441406-48 0-39.703125-32.296875-72-72-72s-72 32.296875-72 72zm180.785156 304c-8.121094-8.601562-12.785156-20.160156-12.785156-32 0-12.273438 4.976562-24.289062 13.65625-32.96875l2.34375-2.34375v-12.6875h16v19.3125l-7.03125 7.03125c-5.703125 5.703125-8.96875 13.59375-8.96875 21.65625s3.265625 15.953125 8.96875 21.65625l7.03125 7.03125v3.3125h56.761719l7.015625-70.160156-7.699219-12.832032-20.75 17.289063-16.992187-67.984375-54.984376 18.328125c-16.359374 5.464844-27.351562 20.710937-27.351562 37.953125v77.40625h16v16h-144c-8.824219 0-16-7.175781-16-16v-144h160v16.144531c2.046875-.96875 4.097656-1.9375 6.289062-2.664062l9.445313-3.152344c-.589844-4.007813-2.558594-6.390625-5.65625-9.792969-4.246094-4.6875-10.078125-11.085937-10.078125-22.992187 0-11.886719 5.832031-18.304688 10.078125-22.984375 3.699219-4.0625 5.921875-6.503906 5.921875-12.214844 0-5.695312-2.222656-8.152344-5.910156-12.199219-4.257813-4.679687-10.089844-11.082031-10.089844-22.976562 0-.601563.078125-1.128907.105469-1.703125-2.585938-.929688-5.3125-1.464844-8.105469-1.464844h-144c-13.230469 0-24 10.769531-24 24v224c0 13.230469 10.769531 24 24 24h144c13.230469 0 24-10.769531 24-24v-8zm-60.785156-32h-16v32h16zm-32-64v-32h-32v32zm-32 16v32h32v-32zm-16-48h-32v32h32zm-32 80h32v-32h-32zm0 48h32v-32h-32zm48 0h32v-32h-32zm64.207031-80h-16.207031v32h16v-29.40625c0-.882812.167969-1.722656.207031-2.59375zm15.792969-36.601562v-11.398438h-32v32h19.257812c2.71875-7.734375 7.039063-14.785156 12.742188-20.601562zm304 39.195312c0-17.242188-10.992188-32.496094-27.351562-37.945312l-54.984376-18.328126-16.992187 67.984376-20.75-17.289063-7.699219 12.832031 7.015625 70.152344h56.761719v-3.3125l7.03125-7.03125c5.703125-5.703125 8.96875-13.59375 8.96875-21.65625s-3.265625-15.953125-8.96875-21.65625l-7.03125-7.03125v-19.3125h16v12.6875l2.34375 2.34375c8.679688 8.679688 13.65625 20.695312 13.65625 32.96875 0 11.839844-4.664062 23.398438-12.785156 32h44.785156zm-288-146.59375v64h-160v-64zm-16 16h-128v32h128zm0 0" fill="url(#a)"/></svg>