<svg id="Layer_5" enable-background="new 0 0 64 64" height="512" viewBox="0 0 64 64" width="512" xmlns="http://www.w3.org/2000/svg"><path d="m34 21c1.657 0 3-1.343 3-3v-1.95c0-1.132.918-2.05 2.05-2.05-.027-.331-.05-.662-.05-1s.023-.669.05-1c-2.237 0-4.05 1.813-4.05 4.05v1.95c0 .552-.448 1-1 1h-4.425c.183.645.312 1.312.374 2z"/><path d="m50 39.05c.331-.027.662-.05 1-.05s.669.023 1 .05c0-2.237-1.813-4.05-4.05-4.05h-9.95c-.552 0-1-.448-1-1v-8c0-1.657-1.343-3-3-3h-4.05c-.062.688-.192 1.355-.374 2h4.424c.552 0 1 .448 1 1v8c0 1.657 1.343 3 3 3h9.95c1.132 0 2.05.918 2.05 2.05z"/><circle cx="51" cy="10" r="3"/><path d="m44.215 20.325c1.785 1.654 4.165 2.675 6.785 2.675s5-1.021 6.785-2.675c-.76-3.114-3.533-5.325-6.785-5.325s-6.025 2.211-6.785 5.325z"/><path d="m47.62 13.661c-.989-.914-1.62-2.211-1.62-3.661 0-2.757 2.243-5 5-5s5 2.243 5 5c0 1.45-.631 2.747-1.62 3.661 2.218.896 4.002 2.651 4.925 4.901 1.069-1.592 1.695-3.505 1.695-5.562 0-5.514-4.486-10-10-10s-10 4.486-10 10c0 2.057.626 3.97 1.695 5.562.923-2.25 2.708-4.005 4.925-4.901z"/><path d="m51 41c-5.514 0-10 4.486-10 10 0 2.057.626 3.97 1.695 5.562.923-2.249 2.708-4.005 4.925-4.901-.989-.914-1.62-2.211-1.62-3.661 0-2.757 2.243-5 5-5s5 2.243 5 5c0 1.45-.631 2.747-1.62 3.661 2.218.896 4.002 2.651 4.925 4.901 1.069-1.592 1.695-3.505 1.695-5.562 0-5.514-4.486-10-10-10z"/><circle cx="51" cy="48" r="3"/><path d="m51 53c-3.252 0-6.025 2.211-6.785 5.325 1.785 1.654 4.165 2.675 6.785 2.675s5-1.021 6.785-2.675c-.76-3.114-3.533-5.325-6.785-5.325z"/><path d="m20 20c0-.552-.448-1-1-1h-1v2h1c.552 0 1-.448 1-1z"/><path d="m20 24c0-.552-.448-1-1-1h-1v2h1c.552 0 1-.448 1-1z"/><path d="m18.56 33.022-1.055 9.496c.469.685.972 1.344 1.498 1.987.528-.644 1.023-1.312 1.492-1.996l-1.054-9.486c-.148-.005-.292-.023-.441-.023s-.293.018-.44.022z"/><path d="m16.526 33.211c-1.039.162-2.043.423-3.006.776.56 1.982 1.32 3.904 2.284 5.721z"/><path d="m11.669 34.794c-5.141 2.665-8.669 8.026-8.669 14.206v2h4v-5.586c0-.645-.251-1.251-.707-1.707l1.414-1.414c.834.834 1.293 1.942 1.293 3.121v5.586h6v-2.454l.667-.583c.703-.616 1.361-1.271 1.997-1.944-2.744-3.28-4.795-7.121-5.995-11.225z"/><path d="m26.322 34.79c-1.656 5.688-4.847 10.743-9.322 14.664v1.546h12v-5.586c0-1.179.459-2.287 1.293-3.121l1.414 1.414c-.456.456-.707 1.063-.707 1.707v5.586h4v-2c0-6.183-3.532-11.547-8.678-14.21z"/><path d="m24.474 33.985c-.961-.352-1.963-.612-3-.774l.721 6.493c.957-1.807 1.716-3.722 2.279-5.719z"/><path d="m19 31c4.963 0 9-4.037 9-9s-4.037-9-9-9-9 4.037-9 9 4.037 9 9 9zm-3-14h2v-2h2v2.184c1.161.414 2 1.514 2 2.816 0 .768-.29 1.469-.766 2 .476.531.766 1.232.766 2 0 1.302-.839 2.402-2 2.816v2.184h-2v-2h-2z"/></svg>