<?xml version="1.0" encoding="utf-8"?>
<!-- Generator: Adobe Illustrator 22.1.0, SVG Export Plug-In . SVG Version: 6.00 Build 0)  -->
<svg version="1.1" id="fd1e300e-6133-4b79-9025-3394cccdd89f"
	 xmlns="http://www.w3.org/2000/svg" xmlns:xlink="http://www.w3.org/1999/xlink" x="0px" y="0px" viewBox="0 0 868 731"
	 style="enable-background:new 0 0 868 731;" xml:space="preserve">
<style type="text/css">
	.st0{opacity:0.5;fill:#0600EF;enable-background:new    ;}
	.st1{fill:url(#SVGID_1_);}
	.st2{fill:url(#SVGID_2_);}
	.st3{fill:#0600EF;}
	.st4{fill:url(#SVGID_3_);}
	.st5{fill:url(#SVGID_4_);}
	.st6{fill:url(#SVGID_5_);}
	.st7{fill:url(#SVGID_6_);}
	.st8{fill:url(#SVGID_7_);}
	.st9{fill:url(#SVGID_8_);}
	.st10{fill:url(#SVGID_9_);}
	.st11{fill:url(#SVGID_10_);}
	.st12{fill:url(#SVGID_11_);}
	.st13{fill:url(#SVGID_12_);}
	.st14{fill:url(#SVGID_13_);}
	.st15{fill:url(#SVGID_14_);}
	.st16{fill:url(#SVGID_15_);}
	.st17{fill:url(#SVGID_16_);}
	.st18{fill:url(#SVGID_17_);}
	.st19{fill:#9FFFE2;}
	.st20{fill:url(#SVGID_18_);}
	.st21{fill:#FFFFFF;}
	.st22{fill:url(#SVGID_19_);}
	.st23{fill:url(#SVGID_20_);}
	.st24{opacity:0.5;fill:#263238;enable-background:new    ;}
	.st25{fill:url(#SVGID_21_);}
	.st26{fill:#263238;}
	.st27{fill:#F8C198;}
	.st28{fill:#00FF4E;}
	.st29{opacity:0.2;}
	.st30{opacity:0.2;fill:#FFFFFF;enable-background:new    ;}
</style>
<title>welcome</title>
<rect x="179" y="68.3" class="st0" width="510" height="595.5"/>
<linearGradient id="SVGID_1_" gradientUnits="userSpaceOnUse" x1="731.5" y1="102" x2="731.5" y2="627" gradientTransform="matrix(1 0 0 -1 0 732)">
	<stop  offset="0" style="stop-color:#808080;stop-opacity:0.25"/>
	<stop  offset="0.54" style="stop-color:#808080;stop-opacity:0.12"/>
	<stop  offset="1" style="stop-color:#808080;stop-opacity:0.1"/>
</linearGradient>
<rect x="595" y="105" class="st1" width="273" height="525"/>
<linearGradient id="SVGID_2_" gradientUnits="userSpaceOnUse" x1="136.5" y1="100" x2="136.5" y2="625" gradientTransform="matrix(1 0 0 -1 0 732)">
	<stop  offset="0" style="stop-color:#808080;stop-opacity:0.25"/>
	<stop  offset="0.54" style="stop-color:#808080;stop-opacity:0.12"/>
	<stop  offset="1" style="stop-color:#808080;stop-opacity:0.1"/>
</linearGradient>
<rect y="107" class="st2" width="273" height="525"/>
<rect x="604" y="113" class="st3" width="255" height="506"/>
<rect x="9" y="113" class="st3" width="255" height="506"/>
<linearGradient id="SVGID_3_" gradientUnits="userSpaceOnUse" x1="136.5" y1="542" x2="136.5" y2="573" gradientTransform="matrix(1 0 0 -1 0 732)">
	<stop  offset="0" style="stop-color:#000000;stop-opacity:0.12"/>
	<stop  offset="0.55" style="stop-color:#000000;stop-opacity:9.000000e-02"/>
	<stop  offset="1" style="stop-color:#000000;stop-opacity:2.000000e-02"/>
</linearGradient>
<rect x="51" y="159" class="st4" width="171" height="31"/>
<linearGradient id="SVGID_4_" gradientUnits="userSpaceOnUse" x1="732.5" y1="495" x2="732.5" y2="526" gradientTransform="matrix(1 0 0 -1 0 732)">
	<stop  offset="0" style="stop-color:#000000;stop-opacity:0.12"/>
	<stop  offset="0.55" style="stop-color:#000000;stop-opacity:9.000000e-02"/>
	<stop  offset="1" style="stop-color:#000000;stop-opacity:2.000000e-02"/>
</linearGradient>
<rect x="647" y="206" class="st5" width="171" height="31"/>
<linearGradient id="SVGID_5_" gradientUnits="userSpaceOnUse" x1="731.5" y1="447" x2="731.5" y2="478" gradientTransform="matrix(1 0 0 -1 0 732)">
	<stop  offset="0" style="stop-color:#000000;stop-opacity:0.12"/>
	<stop  offset="0.55" style="stop-color:#000000;stop-opacity:9.000000e-02"/>
	<stop  offset="1" style="stop-color:#000000;stop-opacity:2.000000e-02"/>
</linearGradient>
<rect x="646" y="254" class="st6" width="171" height="31"/>
<linearGradient id="SVGID_6_" gradientUnits="userSpaceOnUse" x1="731.5" y1="399" x2="731.5" y2="430" gradientTransform="matrix(1 0 0 -1 0 732)">
	<stop  offset="0" style="stop-color:#000000;stop-opacity:0.12"/>
	<stop  offset="0.55" style="stop-color:#000000;stop-opacity:9.000000e-02"/>
	<stop  offset="1" style="stop-color:#000000;stop-opacity:2.000000e-02"/>
</linearGradient>
<rect x="646" y="302" class="st7" width="171" height="31"/>
<linearGradient id="SVGID_7_" gradientUnits="userSpaceOnUse" x1="731.5" y1="351" x2="731.5" y2="382" gradientTransform="matrix(1 0 0 -1 0 732)">
	<stop  offset="0" style="stop-color:#000000;stop-opacity:0.12"/>
	<stop  offset="0.55" style="stop-color:#000000;stop-opacity:9.000000e-02"/>
	<stop  offset="1" style="stop-color:#000000;stop-opacity:2.000000e-02"/>
</linearGradient>
<rect x="646" y="350" class="st8" width="171" height="31"/>
<linearGradient id="SVGID_8_" gradientUnits="userSpaceOnUse" x1="731.5" y1="303" x2="731.5" y2="334" gradientTransform="matrix(1 0 0 -1 0 732)">
	<stop  offset="0" style="stop-color:#000000;stop-opacity:0.12"/>
	<stop  offset="0.55" style="stop-color:#000000;stop-opacity:9.000000e-02"/>
	<stop  offset="1" style="stop-color:#000000;stop-opacity:2.000000e-02"/>
</linearGradient>
<rect x="646" y="398" class="st9" width="171" height="31"/>
<linearGradient id="SVGID_9_" gradientUnits="userSpaceOnUse" x1="731.5" y1="255" x2="731.5" y2="286" gradientTransform="matrix(1 0 0 -1 0 732)">
	<stop  offset="0" style="stop-color:#000000;stop-opacity:0.12"/>
	<stop  offset="0.55" style="stop-color:#000000;stop-opacity:9.000000e-02"/>
	<stop  offset="1" style="stop-color:#000000;stop-opacity:2.000000e-02"/>
</linearGradient>
<rect x="646" y="446" class="st10" width="171" height="31"/>
<linearGradient id="SVGID_10_" gradientUnits="userSpaceOnUse" x1="731.5" y1="207" x2="731.5" y2="238" gradientTransform="matrix(1 0 0 -1 0 732)">
	<stop  offset="0" style="stop-color:#000000;stop-opacity:0.12"/>
	<stop  offset="0.55" style="stop-color:#000000;stop-opacity:9.000000e-02"/>
	<stop  offset="1" style="stop-color:#000000;stop-opacity:2.000000e-02"/>
</linearGradient>
<rect x="646" y="494" class="st11" width="171" height="31"/>
<linearGradient id="SVGID_11_" gradientUnits="userSpaceOnUse" x1="731.5" y1="159" x2="731.5" y2="190" gradientTransform="matrix(1 0 0 -1 0 732)">
	<stop  offset="0" style="stop-color:#000000;stop-opacity:0.12"/>
	<stop  offset="0.55" style="stop-color:#000000;stop-opacity:9.000000e-02"/>
	<stop  offset="1" style="stop-color:#000000;stop-opacity:2.000000e-02"/>
</linearGradient>
<rect x="646" y="542" class="st12" width="171" height="31"/>
<linearGradient id="SVGID_12_" gradientUnits="userSpaceOnUse" x1="731.5" y1="542" x2="731.5" y2="573" gradientTransform="matrix(1 0 0 -1 0 732)">
	<stop  offset="0" style="stop-color:#000000;stop-opacity:0.12"/>
	<stop  offset="0.55" style="stop-color:#000000;stop-opacity:9.000000e-02"/>
	<stop  offset="1" style="stop-color:#000000;stop-opacity:2.000000e-02"/>
</linearGradient>
<rect x="646" y="159" class="st13" width="171" height="31"/>
<linearGradient id="SVGID_13_" gradientUnits="userSpaceOnUse" x1="51" y1="508.5" x2="222" y2="508.5" gradientTransform="matrix(1 0 0 -1 0 732)">
	<stop  offset="0" style="stop-color:#000000;stop-opacity:0.12"/>
	<stop  offset="0.55" style="stop-color:#000000;stop-opacity:9.000000e-02"/>
	<stop  offset="1" style="stop-color:#000000;stop-opacity:2.000000e-02"/>
</linearGradient>
<rect x="51" y="208" class="st14" width="171" height="31"/>
<linearGradient id="SVGID_14_" gradientUnits="userSpaceOnUse" x1="51" y1="461.5" x2="222" y2="461.5" gradientTransform="matrix(1 0 0 -1 0 732)">
	<stop  offset="0" style="stop-color:#000000;stop-opacity:0.12"/>
	<stop  offset="0.55" style="stop-color:#000000;stop-opacity:9.000000e-02"/>
	<stop  offset="1" style="stop-color:#000000;stop-opacity:2.000000e-02"/>
</linearGradient>
<rect x="51" y="255" class="st15" width="171" height="31"/>
<linearGradient id="SVGID_15_" gradientUnits="userSpaceOnUse" x1="51" y1="414.5" x2="222" y2="414.5" gradientTransform="matrix(1 0 0 -1 0 732)">
	<stop  offset="0" style="stop-color:#000000;stop-opacity:0.12"/>
	<stop  offset="0.55" style="stop-color:#000000;stop-opacity:9.000000e-02"/>
	<stop  offset="1" style="stop-color:#000000;stop-opacity:2.000000e-02"/>
</linearGradient>
<rect x="51" y="302" class="st16" width="171" height="31"/>
<linearGradient id="SVGID_16_" gradientUnits="userSpaceOnUse" x1="51" y1="366.5" x2="222" y2="366.5" gradientTransform="matrix(1 0 0 -1 0 732)">
	<stop  offset="0" style="stop-color:#000000;stop-opacity:0.12"/>
	<stop  offset="0.55" style="stop-color:#000000;stop-opacity:9.000000e-02"/>
	<stop  offset="1" style="stop-color:#000000;stop-opacity:2.000000e-02"/>
</linearGradient>
<rect x="51" y="350" class="st17" width="171" height="31"/>
<linearGradient id="SVGID_17_" gradientUnits="userSpaceOnUse" x1="51" y1="318.5" x2="222" y2="318.5" gradientTransform="matrix(1 0 0 -1 0 732)">
	<stop  offset="0" style="stop-color:#000000;stop-opacity:0.12"/>
	<stop  offset="0.55" style="stop-color:#000000;stop-opacity:9.000000e-02"/>
	<stop  offset="1" style="stop-color:#000000;stop-opacity:2.000000e-02"/>
</linearGradient>
<rect x="51" y="398" class="st18" width="171" height="31"/>
<rect x="55" y="163" class="st19" width="164" height="24"/>
<rect x="54.5" y="210" class="st19" width="164" height="24"/>
<rect x="54.5" y="258" class="st19" width="164" height="24"/>
<rect x="54.5" y="306" class="st19" width="164" height="24"/>
<rect x="54.5" y="354" class="st19" width="164" height="24"/>
<rect x="54.5" y="402" class="st19" width="164" height="24"/>
<linearGradient id="SVGID_18_" gradientUnits="userSpaceOnUse" x1="51" y1="270.5" x2="222" y2="270.5" gradientTransform="matrix(1 0 0 -1 0 732)">
	<stop  offset="0" style="stop-color:#000000;stop-opacity:0.12"/>
	<stop  offset="0.55" style="stop-color:#000000;stop-opacity:9.000000e-02"/>
	<stop  offset="1" style="stop-color:#000000;stop-opacity:2.000000e-02"/>
</linearGradient>
<rect x="51" y="446" class="st20" width="171" height="31"/>
<rect x="54.5" y="450" class="st21" width="164" height="24"/>
<rect x="54.5" y="450" class="st19" width="164" height="24"/>
<rect x="54.5" y="498" class="st19" width="164" height="24"/>
<rect x="54.5" y="546" class="st19" width="164" height="24"/>
<rect x="650" y="162" class="st19" width="164" height="24"/>
<rect x="650" y="210" class="st19" width="164" height="24"/>
<rect x="650" y="258" class="st19" width="164" height="24"/>
<rect x="650" y="306" class="st19" width="164" height="24"/>
<rect x="650" y="354" class="st19" width="164" height="24"/>
<rect x="650" y="402" class="st19" width="164" height="24"/>
<rect x="650" y="450" class="st19" width="164" height="24"/>
<rect x="650" y="498" class="st19" width="164" height="24"/>
<rect x="650" y="546" class="st19" width="164" height="24"/>
<linearGradient id="SVGID_19_" gradientUnits="userSpaceOnUse" x1="132" y1="68" x2="735" y2="68" gradientTransform="matrix(1 0 0 -1 0 732)">
	<stop  offset="0" style="stop-color:#808080;stop-opacity:0.25"/>
	<stop  offset="0.54" style="stop-color:#808080;stop-opacity:0.12"/>
	<stop  offset="1" style="stop-color:#808080;stop-opacity:0.1"/>
</linearGradient>
<rect x="132" y="645" class="st22" width="603" height="38"/>
<rect x="137" y="649" class="st3" width="594" height="30"/>
<linearGradient id="SVGID_20_" gradientUnits="userSpaceOnUse" x1="435" y1="643" x2="435" y2="682" gradientTransform="matrix(1 0 0 -1 0 732)">
	<stop  offset="0" style="stop-color:#808080;stop-opacity:0.25"/>
	<stop  offset="0.54" style="stop-color:#808080;stop-opacity:0.12"/>
	<stop  offset="1" style="stop-color:#808080;stop-opacity:0.1"/>
</linearGradient>
<rect x="134" y="50" class="st23" width="602" height="39"/>
<rect x="137" y="53" class="st3" width="594" height="30"/>
<rect x="289" y="113" class="st24" width="292" height="506"/>
<linearGradient id="SVGID_21_" gradientUnits="userSpaceOnUse" x1="601.0001" y1="27.2" x2="601.0001" y2="326.0225" gradientTransform="matrix(1 0 0 -1 -166 647.5)">
	<stop  offset="0" style="stop-color:#808080;stop-opacity:0.25"/>
	<stop  offset="0.54" style="stop-color:#808080;stop-opacity:0.12"/>
	<stop  offset="1" style="stop-color:#808080;stop-opacity:0.1"/>
</linearGradient>
<path class="st25" d="M659.7,333c7,9.4-3.5,20.5-3.5,20.5l1.8,0.6c-2.6,2.9-12.8,15.8-52.3,74.4c-50.5,75-118.5,93.7-118.5,93.7l0,0
	c-8.3-6.5-17.7-11.3-27.7-14.3v-7.1c26.1-7.7,46.7-27.7,55.3-53.5c6-11.9,9.2-25.1,9.1-38.4c0-48-39.8-86.9-88.8-86.9
	s-88.8,38.9-88.8,86.9c0,13.4,3.1,26.5,9.1,38.4c8.6,25.8,29.2,45.8,55.3,53.5v7.1c-10.1,3-19.5,7.8-27.7,14.3l0,0
	c0,0-68.1-18.7-118.6-93.7c-39.4-58.6-49.7-71.5-52.3-74.4l1.8-0.6c0,0-10.5-11.1-3.5-20.5s-46.1-20.5-40.1,0s13.9,30.7,13.9,30.7
	s111.2,175.4,169.3,204.4c-1.4,5.9-2.1,12-2.1,18.1v34.1h167.2v-34.1c0-6.1-0.7-12.2-2.1-18.1c58-29,169.3-204.4,169.3-204.4
	s7.8-10.2,13.9-30.7S652.7,323.7,659.7,333z"/>
<circle class="st26" cx="435" cy="413.5" r="85.1"/>
<circle class="st27" cx="435" cy="426.8" r="80.1"/>
<circle class="st26" cx="403.3" cy="409.3" r="10"/>
<circle class="st26" cx="468.4" cy="409.3" r="10"/>
<path class="st21" d="M458.3,463.5c0,6-10.5,15.8-23.3,15.8s-23.3-9.8-23.3-15.8s10.5-5.8,23.3-5.8S458.3,457.5,458.3,463.5z"/>
<circle class="st21" cx="405.8" cy="409.3" r="3.3"/>
<circle class="st21" cx="471.7" cy="409.3" r="3.3"/>
<path class="st26" d="M443,382.4c-4.9,0-9.3-4.2-9.8-9.1c-0.3-5,2.4-9.7,7-11.8c0.5-0.2,1-0.4,1.5-0.4c1.7,0,2.5,2,3,3.6
	c1.7,4.9,4.7,9.7,9.3,12s11.2,1.1,13.7-3.5c-6.6-3-9.5-12.2-5.6-18.4c1.5-2.4,3.8-4.4,4.3-7.1c0.9-5-4.6-8.6-9.5-10.1
	c-14-4.3-62.8-4.8-65.5,16.1C388.7,375.8,427.6,385.3,443,382.4z"/>
<ellipse transform="matrix(0.9302 -0.367 0.367 0.9302 -131.9538 161.3189)" class="st27" cx="358.3" cy="427.7" rx="5" ry="14.2"/>
<ellipse transform="matrix(0.367 -0.9302 0.9302 0.367 -73.8633 746.6987)" class="st27" cx="511.7" cy="427.6" rx="14.2" ry="5"/>
<path class="st28" d="M484.9,524.3c0,0,65.2-18.3,113.5-91.7s50.9-73.6,50.9-73.6l25.8,10.2c0,0-120.1,193.5-171.8,203.5
	S484.9,524.3,484.9,524.3z"/>
<path class="st27" d="M646.8,359.3c0,0,10-10.8,3.3-20s44.2-20,38.4,0s-13.3,30-13.3,30L646.8,359.3z"/>
<path class="st28" d="M385.1,524.3c0,0-65.2-18.3-113.5-91.7s-50.9-73.6-50.9-73.6l-25.9,10.2c0,0,120.1,193.5,171.8,203.5
	S385.1,524.3,385.1,524.3z"/>
<path class="st27" d="M223.2,359.3c0,0-10-10.8-3.3-20s-44.2-20-38.4,0s13.3,30,13.3,30L223.2,359.3z"/>
<g class="st29">
	<path class="st21" d="M462.3,342.8c-0.5,2.8-2.8,4.8-4.3,7.1c-3.4,5.4-1.6,13.2,3.3,17c-1.4-3.6-1.1-7.8,0.8-11.1
		c1.5-2.4,3.8-4.4,4.3-7.1c0.5-3.1-1.4-5.7-4.1-7.6C462.4,341.6,462.4,342.2,462.3,342.8z"/>
	<path class="st21" d="M441.5,362c-0.3-0.8-0.6-1.5-0.9-2.3c-0.5-1.6-1.4-3.5-3-3.6c-0.5,0-1,0.1-1.5,0.4c-4.6,2.1-7.3,6.8-7,11.8
		c0.4,3,2,5.6,4.5,7.4c-0.1-0.5-0.2-1-0.3-1.5c-0.3-5,2.4-9.7,7-11.8C440.6,362.2,441,362.1,441.5,362z"/>
	<path class="st21" d="M434.4,377.9c-12.2,0.5-31.8-4.1-41.5-14c7.2,15.4,37,21.8,50,19.3C439.4,383,436.1,381,434.4,377.9z"/>
	<path class="st21" d="M462.7,369.6c-2.9,3.4-8.6,4.1-12.8,2.1c-1.4-0.7-2.6-1.6-3.7-2.6c1.6,3.6,4.4,6.6,7.9,8.4
		c4.7,2.3,11.2,1.1,13.7-3.5C465.7,373.1,463.9,371.6,462.7,369.6z"/>
</g>
<path class="st30" d="M671.8,369.3c0,0-120.1,193.5-171.8,203.5c-3,0.6-6,1-9.1,1.1c4.2,0.1,8.3-0.3,12.4-1.1
	c51.7-10,171.8-203.5,171.8-203.5l-2.7-1C672.1,369,671.8,369.3,671.8,369.3z"/>
<path class="st30" d="M198.1,369.3c0,0,120.1,193.5,171.9,203.5c3,0.6,6,1,9.1,1.1c-4.2,0.1-8.3-0.3-12.4-1.1
	c-51.7-10-171.8-203.5-171.8-203.5l2.7-1C197.9,369,198.1,369.3,198.1,369.3z"/>
<path class="st28" d="M435,506.9L435,506.9c44.2,0,80.1,35.8,80.1,80.1l0,0v33.4l0,0H354.9l0,0v-33.4
	C354.9,542.7,390.8,506.9,435,506.9L435,506.9z"/>
<path class="st30" d="M435.8,507.3L435.8,507.3c-2.9,0-5.8,0.2-8.7,0.5c1,0,1.9-0.1,2.9-0.1l0,0c44.2,0,80.1,35.8,80.1,80.1l0,0
	v32.9h5.8v-33.3C515.9,543.1,480,507.3,435.8,507.3L435.8,507.3z"/>
<path class="st30" d="M434.2,507.3L434.2,507.3c2.9,0,5.8,0.2,8.7,0.5c-1,0-1.9-0.1-2.9-0.1l0,0c-44.2,0-80.1,35.8-80.1,80.1l0,0
	v32.9h-5.8v-33.3C354.1,543.1,390,507.3,434.2,507.3L434.2,507.3z"/>
<path class="st27" d="M435,484.8L435,484.8c12.9,0,23.4,10.5,23.4,23.4v9.6c0,12.9-10.5,23.3-23.4,23.3l0,0
	c-12.9,0-23.4-10.5-23.4-23.3v-9.6C411.6,495.2,422.1,484.8,435,484.8z"/>
</svg>
